<svg id="Layer_1" data-name="Layer 1" xmlns="http://www.w3.org/2000/svg" xmlns:xlink="http://www.w3.org/1999/xlink" viewBox="0 0 75.59 718.82"><defs><style>.cls-1,.cls-3{fill:none;}.cls-2{fill:#161615;}.cls-3{stroke:#4ea323;stroke-width:1.94px;}.cls-4{fill:#4ea323;}.cls-5{clip-path:url(#clip-path);}.cls-6{fill:#007dac;}.cls-7{fill:#aeb5b9;}.cls-8{fill:#fff;}.cls-9{clip-path:url(#clip-path-2);}</style><clipPath id="clip-path" transform="translate(-264.04 -69.94)"><path class="cls-1" d="M270.65,100.43C270.65,116.19,283,129,298.2,129s27.55-12.78,27.55-28.55S313.42,71.88,298.2,71.88s-27.55,12.78-27.55,28.55"/></clipPath><clipPath id="clip-path-2" transform="translate(-264.04 -69.94)"><path class="cls-1" d="M270.65,319.71c0,15.76,12.33,28.55,27.55,28.55s27.55-12.78,27.55-28.55-12.33-28.55-27.55-28.55-27.55,12.78-27.55,28.55"/></clipPath></defs><title>ikoner-almanac</title><path class="cls-2" d="M298.2,129.95c15.72,0,28.52-13.24,28.52-29.52S313.93,70.91,298.2,70.91s-28.52,13.24-28.52,29.52,12.79,29.52,28.52,29.52" transform="translate(-264.04 -69.94)"/><path class="cls-3" d="M298.2,129.95c15.72,0,28.52-13.24,28.52-29.52S313.93,70.91,298.2,70.91s-28.52,13.24-28.52,29.52S282.48,129.95,298.2,129.95Z" transform="translate(-264.04 -69.94)"/><path class="cls-4" d="M271.84,99.64a3.13,3.13,0,0,0,3.14,3.13l37.83-.07-5.43,4.92a3.13,3.13,0,0,0,4.21,4.64l11.95-10.82a3.13,3.13,0,0,0-.18-4.8l-12.3-9.56a3.14,3.14,0,0,0-4.4.55A3.1,3.1,0,0,0,306,89a3.15,3.15,0,0,0,1.17,3l5.66,4.4L275,96.5a3.13,3.13,0,0,0-3.09,2.62,3,3,0,0,0,0,.52" transform="translate(-264.04 -69.94)"/><g class="cls-5"><path class="cls-6" d="M295.31,90.89a1.14,1.14,0,0,0-.6,1,1.16,1.16,0,0,0,.14.54,1.14,1.14,0,0,0,1.55.46l5-2.71a1.15,1.15,0,0,0,.35-1.72l-3.66-4.61a1.14,1.14,0,0,0-1.79,1.42L298,87.38l-13.61-2.26a1.14,1.14,0,0,0-1.31.94,1.06,1.06,0,0,0,0,.19,1.14,1.14,0,0,0,1,1.13l13.64,2.27Z" transform="translate(-264.04 -69.94)"/><path class="cls-6" d="M296.5,115.62l3.66-4.6a1.14,1.14,0,0,0-.35-1.72l-5-2.71a1.14,1.14,0,0,0-1.55.46,1.17,1.17,0,0,0-.14.54,1.15,1.15,0,0,0,.6,1l2.3,1.25-13.64,2.27a1.14,1.14,0,0,0-1,1.13,1.11,1.11,0,0,0,0,.19,1.14,1.14,0,0,0,1.31.94l13.61-2.27-1.66,2.09a1.14,1.14,0,0,0,1.79,1.42" transform="translate(-264.04 -69.94)"/><path class="cls-7" d="M287,95.78a1.14,1.14,0,0,0,.35-1.72l-3.66-4.6a1.14,1.14,0,1,0-1.79,1.42L283.59,93,270,90.7a1.14,1.14,0,0,0-1.31.94,1.27,1.27,0,0,0,0,.19,1.14,1.14,0,0,0,1,1.13l13.63,2.27-2.3,1.25a1.14,1.14,0,0,0-.6,1,1.12,1.12,0,0,0,.14.54,1.14,1.14,0,0,0,1.55.46Z" transform="translate(-264.04 -69.94)"/><path class="cls-7" d="M279.11,110.82l3.66-4.6a1.15,1.15,0,0,0-.35-1.72l-5-2.71a1.14,1.14,0,1,0-1.09,2l2.3,1.25L265,107.32a1.14,1.14,0,0,0-1,1.13,1.09,1.09,0,0,0,0,.19,1.15,1.15,0,0,0,1.32.94L279,107.3l-1.66,2.09a1.14,1.14,0,0,0,1.79,1.42" transform="translate(-264.04 -69.94)"/><path class="cls-8" d="M287.64,102.24a1.14,1.14,0,0,0,1.31.94l13.61-2.27L300.9,103a1.14,1.14,0,1,0,1.79,1.42l3.66-4.6a1.14,1.14,0,0,0,.23-0.94A1.15,1.15,0,0,0,306,98.1l-5-2.71a1.14,1.14,0,0,0-1.55.46,1.12,1.12,0,0,0-.14.54,1.15,1.15,0,0,0,.6,1l2.3,1.25-13.64,2.27a1.14,1.14,0,0,0-1,1.13,1.09,1.09,0,0,0,0,.19" transform="translate(-264.04 -69.94)"/></g><path class="cls-2" d="M298.2,239.59c15.72,0,28.52-13.24,28.52-29.52s-12.79-29.52-28.52-29.52-28.52,13.24-28.52,29.52,12.79,29.52,28.52,29.52" transform="translate(-264.04 -69.94)"/><path class="cls-3" d="M298.2,239.59c15.72,0,28.52-13.24,28.52-29.52s-12.79-29.52-28.52-29.52-28.52,13.24-28.52,29.52S282.48,239.59,298.2,239.59Z" transform="translate(-264.04 -69.94)"/><path class="cls-6" d="M292.86,202.69L290,200a4.07,4.07,0,0,0,.54-2,4.23,4.23,0,1,0-2,3.51l2.84,2.65a9.41,9.41,0,0,1,1.46-1.52" transform="translate(-264.04 -69.94)"/><path class="cls-8" d="M304.88,202.36l3.78-6.26a4.29,4.29,0,0,0,1.17.18,4.16,4.16,0,1,0-4.22-4.16,4.12,4.12,0,0,0,1.22,2.92l-3.77,6.25a9.6,9.6,0,0,1,1.82,1.07" transform="translate(-264.04 -69.94)"/><path class="cls-4" d="M317.92,207.6a4.22,4.22,0,0,0-3.94,2.72l-5.25-.51s0,0.08,0,.11a9.42,9.42,0,0,1-.21,2l5.25,0.51a4.21,4.21,0,1,0,4.15-4.81" transform="translate(-264.04 -69.94)"/><path class="cls-6" d="M303.43,223.95l-1.18-5.05a9.89,9.89,0,0,1-2.07.47l1.18,5.06a4.13,4.13,0,0,0-2.28,3.67,4.22,4.22,0,1,0,4.35-4.15" transform="translate(-264.04 -69.94)"/><path class="cls-6" d="M289.66,211.94l-6.53,2.16a4.23,4.23,0,0,0-3.53-1.89,4.16,4.16,0,1,0,4.22,4.15,2.53,2.53,0,0,0,0-.28l6.56-2.16a9.69,9.69,0,0,1-.68-2" transform="translate(-264.04 -69.94)"/><path class="cls-7" d="M306.32,209.93a7.23,7.23,0,1,1-7.23-7.13,7.18,7.18,0,0,1,7.23,7.13" transform="translate(-264.04 -69.94)"/><path class="cls-2" d="M298.2,349.23c15.72,0,28.52-13.24,28.52-29.52S313.93,290.2,298.2,290.2s-28.52,13.24-28.52,29.52,12.79,29.52,28.52,29.52" transform="translate(-264.04 -69.94)"/><g class="cls-9"><path class="cls-4" d="M310.38,331a17.09,17.09,0,0,1-23.3,1.66A16.73,16.73,0,0,1,285.14,309l-3-2.45a20.55,20.55,0,0,0,2.39,29.12,21,21,0,0,0,27.41-.83l4.07,3.37a4.36,4.36,0,0,0,1.56,3.5L332.2,353.8a4.54,4.54,0,0,0,6.35-.62L311,330.38c-0.19.23-.39,0.45-0.6,0.67" transform="translate(-264.04 -69.94)"/><path class="cls-6" d="M338,346.87L323.45,334.8a4.45,4.45,0,0,0-3.75-.9l-4.07-3.37a20.49,20.49,0,0,0-4-26.87,21,21,0,0,0-28.63,2q-0.38.41-.74,0.84l0,0,3,2.45,0,0c0.2-.23.4-0.46,0.61-0.68a17.08,17.08,0,0,1,23.29-1.66A16.72,16.72,0,0,1,311,330.36v0l27.57,22.8a4.44,4.44,0,0,0-.52-6.3" transform="translate(-264.04 -69.94)"/></g><path class="cls-3" d="M298.2,349.23c15.72,0,28.52-13.24,28.52-29.52S313.93,290.2,298.2,290.2s-28.52,13.24-28.52,29.52S282.48,349.23,298.2,349.23Z" transform="translate(-264.04 -69.94)"/><path class="cls-8" d="M306.69,327.42a19.44,19.44,0,0,0-4.07,1,18.9,18.9,0,0,1-3.56.93V314a19.56,19.56,0,0,0,4.07-1,19.11,19.11,0,0,1,3.55-.93v15.36Zm-17,0V312.06a18.51,18.51,0,0,1,3.56.93,19.22,19.22,0,0,0,4.07,1v15.36a18.73,18.73,0,0,1-3.56-.93,18.71,18.71,0,0,0-4.07-1m17.81-17.16a16,16,0,0,0-4.93,1.07,10.32,10.32,0,0,1-8.8,0,16,16,0,0,0-4.93-1.07,0.86,0.86,0,0,0-.85.87v17.11a0.86,0.86,0,0,0,.85.87,14.47,14.47,0,0,1,4.4,1,11.88,11.88,0,0,0,9.84,0,14.47,14.47,0,0,1,4.4-1,0.86,0.86,0,0,0,.85-0.87V311.13a0.84,0.84,0,0,0-.84-0.87" transform="translate(-264.04 -69.94)"/><path class="cls-7" d="M295.2,315.94l-2.83-.87a0.84,0.84,0,0,0-1.05.59,0.88,0.88,0,0,0,.57,1.08s3,0.91,3.07.91a0.84,0.84,0,0,0,.81-0.62,0.87,0.87,0,0,0-.56-1.08" transform="translate(-264.04 -69.94)"/><path class="cls-7" d="M295.2,320.31l-2.83-.87a0.84,0.84,0,0,0-1.05.59,0.88,0.88,0,0,0,.57,1.08s3,0.91,3.07.91a0.84,0.84,0,0,0,.81-0.62,0.87,0.87,0,0,0-.56-1.08" transform="translate(-264.04 -69.94)"/><path class="cls-7" d="M295.2,324.69l-2.83-.87a0.84,0.84,0,0,0-1.05.59,0.88,0.88,0,0,0,.57,1.08s3,0.91,3.07.91a0.84,0.84,0,0,0,.81-0.62,0.87,0.87,0,0,0-.56-1.08" transform="translate(-264.04 -69.94)"/><path class="cls-7" d="M300.64,317a0.85,0.85,0,0,0,.81.62c0.08,0,3.07-.91,3.07-0.91a0.87,0.87,0,0,0,.57-1.08,0.85,0.85,0,0,0-1.05-.59l-2.82.87a0.88,0.88,0,0,0-.57,1.08" transform="translate(-264.04 -69.94)"/><path class="cls-7" d="M304,319.44l-2.83.87a0.87,0.87,0,0,0-.57,1.08,0.85,0.85,0,0,0,.81.62c0.08,0,3.07-.91,3.07-0.91a0.88,0.88,0,0,0,.57-1.08,0.84,0.84,0,0,0-1.05-.59" transform="translate(-264.04 -69.94)"/><path class="cls-7" d="M304,323.82l-2.83.87a0.87,0.87,0,0,0-.57,1.08,0.85,0.85,0,0,0,.81.62c0.08,0,3.07-.91,3.07-0.91a0.88,0.88,0,0,0,.57-1.08,0.84,0.84,0,0,0-1.05-.59" transform="translate(-264.04 -69.94)"/><path class="cls-2" d="M298.2,458.87c15.72,0,28.52-13.24,28.52-29.52s-12.79-29.52-28.52-29.52-28.52,13.24-28.52,29.52,12.79,29.52,28.52,29.52" transform="translate(-264.04 -69.94)"/><path class="cls-3" d="M298.2,458.87c15.72,0,28.52-13.24,28.52-29.52s-12.79-29.52-28.52-29.52-28.52,13.24-28.52,29.52S282.48,458.87,298.2,458.87Z" transform="translate(-264.04 -69.94)"/><rect class="cls-8" x="30.41" y="355.96" width="8.84" height="16.04"/><path class="cls-4" d="M294.6,441.3l2.41-8.42a3.1,3.1,0,0,1-2.06-2.88,3.18,3.18,0,0,1,3.26-3.1v-5.55h-6.93c0-5.07,3.17-9.36,6.93-9.36v-4.07c-6.18,0-11.2,6-11.2,13.43h0a3.57,3.57,0,0,0-3.54,3.48v18.82a3.58,3.58,0,0,0,3.66,3.49H298.2V441.3h-3.6Z" transform="translate(-264.04 -69.94)"/><path class="cls-6" d="M312.95,443.66V424.84a3.57,3.57,0,0,0-3.54-3.48h0c0-7.41-5-13.43-11.2-13.43V412c3.76,0,6.93,4.29,6.93,9.36H298.2v5.54a3.19,3.19,0,0,1,3.26,3.1,3.11,3.11,0,0,1-2.06,2.88l2.41,8.42H298.2v5.85h11.08a3.58,3.58,0,0,0,3.67-3.49" transform="translate(-264.04 -69.94)"/><path class="cls-2" d="M298.2,568.51c15.72,0,28.52-13.24,28.52-29.52s-12.79-29.52-28.52-29.52S269.68,522.72,269.68,539s12.79,29.52,28.52,29.52" transform="translate(-264.04 -69.94)"/><path class="cls-3" d="M298.2,568.51c15.72,0,28.52-13.24,28.52-29.52s-12.79-29.52-28.52-29.52S269.68,522.72,269.68,539,282.48,568.51,298.2,568.51Z" transform="translate(-264.04 -69.94)"/><path class="cls-6" d="M288.12,528.63a4.46,4.46,0,1,1-4.46-4.5,4.49,4.49,0,0,1,4.46,4.5" transform="translate(-264.04 -69.94)"/><path class="cls-6" d="M284,542a3.54,3.54,0,1,1-3.54-3.57A3.56,3.56,0,0,1,284,542" transform="translate(-264.04 -69.94)"/><path class="cls-4" d="M289.75,554.28a3.23,3.23,0,1,1-3.23-3.26,3.25,3.25,0,0,1,3.23,3.26" transform="translate(-264.04 -69.94)"/><path class="cls-4" d="M302.06,559.77a3.07,3.07,0,1,1-3.07-3.1,3.08,3.08,0,0,1,3.07,3.1" transform="translate(-264.04 -69.94)"/><path class="cls-4" d="M314.66,555.89a2.62,2.62,0,1,1-2.62-2.64,2.63,2.63,0,0,1,2.62,2.64" transform="translate(-264.04 -69.94)"/><path class="cls-7" d="M321.91,544.44a2.34,2.34,0,1,1-2.34-2.36,2.35,2.35,0,0,1,2.34,2.36" transform="translate(-264.04 -69.94)"/><path class="cls-7" d="M318.36,532.6a1.83,1.83,0,1,0-2.11-1.49,1.83,1.83,0,0,0,2.11,1.49" transform="translate(-264.04 -69.94)"/><path class="cls-7" d="M309.44,521.33a1.26,1.26,0,1,1-1.26-1.27,1.27,1.27,0,0,1,1.26,1.27" transform="translate(-264.04 -69.94)"/><path class="cls-6" d="M299.9,520.48a5.3,5.3,0,1,1-5.3-5.35,5.33,5.33,0,0,1,5.3,5.35" transform="translate(-264.04 -69.94)"/><path class="cls-8" d="M293.33,533.77a0.38,0.38,0,0,1-.38.38h-1.76a0.38,0.38,0,0,1-.38-0.38v-3.55a0.38,0.38,0,0,1,.38-0.38H293a0.38,0.38,0,0,1,.38.38v3.55ZM293,529.07h-1.76a1.14,1.14,0,0,0-1.13,1.14v3.55a1.14,1.14,0,0,0,1.13,1.14H293a1.14,1.14,0,0,0,1.13-1.14v-3.55a1.14,1.14,0,0,0-1.13-1.14" transform="translate(-264.04 -69.94)"/><path class="cls-8" d="M301.95,530.22a0.38,0.38,0,0,1,.38-0.38h1.76a0.38,0.38,0,0,1,.38.38v3.55a0.38,0.38,0,0,1-.38.38h-1.76a0.38,0.38,0,0,1-.38-0.38v-3.55Zm0.38,4.69h1.76a1.14,1.14,0,0,0,1.13-1.14v-3.55a1.14,1.14,0,0,0-1.13-1.14h-1.76a1.14,1.14,0,0,0-1.13,1.14v3.55a1.14,1.14,0,0,0,1.13,1.14" transform="translate(-264.04 -69.94)"/><path class="cls-8" d="M296.91,542.4v-3.55a0.38,0.38,0,0,1,.38-0.38h1.76a0.38,0.38,0,0,1,.38.38v3.55a0.38,0.38,0,0,1-.38.38h-1.76a0.38,0.38,0,0,1-.38-0.38m3.27,0v-3.55a1.14,1.14,0,0,0-1.13-1.14h-1.76a1.14,1.14,0,0,0-1.13,1.14v3.55a1.14,1.14,0,0,0,1.13,1.14h1.76a1.14,1.14,0,0,0,1.13-1.14" transform="translate(-264.04 -69.94)"/><path class="cls-8" d="M293,550.07a0.38,0.38,0,0,1-.38.38h-1.76a0.38,0.38,0,0,1-.38-0.38v-3.55a0.38,0.38,0,0,1,.38-0.38h1.76a0.38,0.38,0,0,1,.38.38v3.55Zm-0.38-4.7h-1.76a1.14,1.14,0,0,0-1.13,1.14v3.55a1.14,1.14,0,0,0,1.13,1.14h1.76a1.14,1.14,0,0,0,1.13-1.14v-3.55a1.14,1.14,0,0,0-1.13-1.14" transform="translate(-264.04 -69.94)"/><path class="cls-8" d="M304.91,550.23a0.38,0.38,0,0,1-.38.38h-1.76a0.38,0.38,0,0,1-.38-0.38v-3.55a0.38,0.38,0,0,1,.38-0.38h1.76a0.38,0.38,0,0,1,.38.38v3.55Zm-0.38-4.69h-1.76a1.14,1.14,0,0,0-1.13,1.14v3.55a1.14,1.14,0,0,0,1.13,1.14h1.76a1.14,1.14,0,0,0,1.13-1.14v-3.55a1.14,1.14,0,0,0-1.13-1.14" transform="translate(-264.04 -69.94)"/><path class="cls-8" d="M296.31,530.85l1.48-1v4.73a0.38,0.38,0,1,0,.75,0v-5.46a0.39,0.39,0,0,0-.2-0.34,0.37,0.37,0,0,0-.39,0l-2.08,1.46a0.39,0.39,0,0,0-.09.53,0.37,0.37,0,0,0,.52.09" transform="translate(-264.04 -69.94)"/><path class="cls-8" d="M292.77,543.73a0.38,0.38,0,0,0,.38-0.38V537.9a0.38,0.38,0,0,0-.2-0.34,0.37,0.37,0,0,0-.39,0L290.47,539a0.38,0.38,0,0,0-.09.53,0.38,0.38,0,0,0,.53.1l1.48-1v4.73a0.38,0.38,0,0,0,.38.38" transform="translate(-264.04 -69.94)"/><path class="cls-8" d="M298.61,551.41A0.38,0.38,0,0,0,299,551v-5.46a0.38,0.38,0,0,0-.59-0.31l-2.08,1.46a0.38,0.38,0,0,0-.09.53,0.37,0.37,0,0,0,.52.1l1.48-1V551a0.38,0.38,0,0,0,.38.38" transform="translate(-264.04 -69.94)"/><path class="cls-8" d="M304.24,543.73a0.38,0.38,0,0,0,.38-0.38V537.9a0.38,0.38,0,0,0-.2-0.34,0.37,0.37,0,0,0-.39,0L302,539a0.38,0.38,0,0,0-.09.53,0.38,0.38,0,0,0,.53.1l1.48-1v4.73a0.38,0.38,0,0,0,.38.38" transform="translate(-264.04 -69.94)"/><path class="cls-8" d="M308.24,533.77v-3.55a0.38,0.38,0,0,1,.38-0.38h1.76a0.38,0.38,0,0,1,.38.38v3.55a0.38,0.38,0,0,1-.38.38h-1.76a0.38,0.38,0,0,1-.38-0.38m2.14,1.14a1.14,1.14,0,0,0,1.13-1.14v-3.55a1.14,1.14,0,0,0-1.13-1.14h-1.76a1.14,1.14,0,0,0-1.13,1.14v3.55a1.14,1.14,0,0,0,1.13,1.14h1.76Z" transform="translate(-264.04 -69.94)"/><path class="cls-8" d="M308.69,550.23v-3.55a0.38,0.38,0,0,1,.38-0.38h1.76a0.38,0.38,0,0,1,.38.38v3.55a0.38,0.38,0,0,1-.38.38h-1.76a0.38,0.38,0,0,1-.38-0.38m3.27,0v-3.55a1.14,1.14,0,0,0-1.13-1.14h-1.76a1.14,1.14,0,0,0-1.13,1.14v3.55a1.14,1.14,0,0,0,1.13,1.14h1.76a1.14,1.14,0,0,0,1.13-1.14" transform="translate(-264.04 -69.94)"/><path class="cls-8" d="M310.54,543.73a0.38,0.38,0,0,0,.38-0.38V537.9a0.38,0.38,0,0,0-.2-0.34,0.37,0.37,0,0,0-.39,0L308.24,539a0.38,0.38,0,0,0-.09.53,0.37,0.37,0,0,0,.52.1l1.48-1v4.73a0.38,0.38,0,0,0,.38.38" transform="translate(-264.04 -69.94)"/><path class="cls-2" d="M298.2,678.15c15.72,0,28.52-13.24,28.52-29.52s-12.79-29.52-28.52-29.52-28.52,13.24-28.52,29.52,12.79,29.52,28.52,29.52" transform="translate(-264.04 -69.94)"/><path class="cls-3" d="M298.2,678.15c15.72,0,28.52-13.24,28.52-29.52s-12.79-29.52-28.52-29.52-28.52,13.24-28.52,29.52S282.48,678.15,298.2,678.15Z" transform="translate(-264.04 -69.94)"/><path class="cls-6" d="M298.2,650.37c-7.17,0-13.18-2.1-14.81-4.95a3.08,3.08,0,0,0-.46,1.56v4.65c0,3.59,6.84,6.5,15.27,6.5s15.29-2.92,15.29-6.5V647a3.07,3.07,0,0,0-.46-1.56c-1.64,2.84-7.64,4.95-14.82,4.95" transform="translate(-264.04 -69.94)"/><path class="cls-4" d="M298.2,660C291,660,285,657.86,283.38,655a3.06,3.06,0,0,0-.46,1.55v4.65c0,3.59,6.84,6.5,15.27,6.5s15.29-2.9,15.29-6.5v-4.65A3.05,3.05,0,0,0,313,655c-1.64,2.84-7.64,4.95-14.82,4.95" transform="translate(-264.04 -69.94)"/><path class="cls-6" d="M313.06,636.13c-0.3,2.63-6.83,4.73-14.87,4.73s-14.56-2.11-14.86-4.73a3.09,3.09,0,0,0-.41,1.48v4.65c0,3.59,6.84,6.5,15.27,6.5s15.29-2.91,15.29-6.5v-4.65a3.1,3.1,0,0,0-.42-1.48" transform="translate(-264.04 -69.94)"/><path class="cls-7" d="M298.2,639.39c8.23,0,14.89-2.2,14.89-4.92s-6.66-4.92-14.89-4.92-14.88,2.2-14.88,4.92,6.66,4.92,14.88,4.92" transform="translate(-264.04 -69.94)"/><path class="cls-8" d="M313.17,662.32a1.43,1.43,0,0,1-2,0l-4.2-4.09a1.34,1.34,0,0,1-.41-1v-5.45a1.4,1.4,0,0,1,2.8,0v4.89l3.79,3.69a1.34,1.34,0,0,1,0,1.93m5.8-7.19A11.2,11.2,0,1,0,305.79,668,11,11,0,0,0,319,655.13" transform="translate(-264.04 -69.94)"/><path class="cls-2" d="M298.2,787.8c15.72,0,28.52-13.24,28.52-29.52s-12.79-29.52-28.52-29.52S269.68,742,269.68,758.28s12.79,29.52,28.52,29.52" transform="translate(-264.04 -69.94)"/><path class="cls-3" d="M298.2,787.8c15.72,0,28.52-13.24,28.52-29.52s-12.79-29.52-28.52-29.52S269.68,742,269.68,758.28,282.48,787.8,298.2,787.8Z" transform="translate(-264.04 -69.94)"/><polygon class="cls-6" points="29.52 680.5 24.9 688.34 29.53 696.17 38.79 696.17 29.52 680.5"/><polygon class="cls-8" points="38.8 696.17 43.43 688.34 38.79 680.5 29.53 680.5 38.8 696.17"/><polygon class="cls-8" points="50.21 688.34 50.21 688.34 42.18 702.33 26.14 702.33 18.12 688.34 9.46 688.34 21.81 709.89 46.51 709.89 58.87 688.34 58.87 688.34 50.21 688.34"/><polygon class="cls-8" points="50.21 688.34 50.21 688.34 42.18 674.34 26.14 674.34 18.12 688.34 9.46 688.34 21.81 666.79 46.51 666.79 58.87 688.34 58.87 688.34 50.21 688.34"/><polygon class="cls-6" points="21.83 709.88 26.16 702.33 26.14 702.33 18.11 688.34 9.46 688.34 21.81 709.88 21.83 709.88"/><polygon class="cls-4" points="46.52 709.87 42.19 702.32 42.18 702.33 26.14 702.33 26.14 702.33 21.81 709.89 46.51 709.89 46.52 709.87"/><polygon class="cls-7" points="58.86 688.32 50.2 688.32 50.21 688.34 42.19 702.34 42.18 702.34 46.52 709.89 58.87 688.34 58.86 688.32"/><polygon class="cls-6" points="46.49 666.79 42.16 674.34 42.19 674.34 50.21 688.34 58.87 688.34 46.52 666.79 46.49 666.79"/><polygon class="cls-4" points="21.8 666.8 26.13 674.36 26.14 674.34 42.18 674.34 42.19 674.34 46.52 666.79 21.81 666.79 21.8 666.8"/><polygon class="cls-7" points="9.47 688.35 18.13 688.35 18.12 688.33 26.14 674.34 26.14 674.34 21.81 666.79 9.46 688.33 9.47 688.35"/></svg>